Coordinates
version=1
nRows=8
nColumns=36
inDegrees=yes

Units are S.I. units (second, meters, Newtons, ...)
If the header above contains a line with 'inDegrees', this indicates whether rotational values are in degrees (yes) or radians (no).

endheader
time	pelvis_tilt	pelvis_list	pelvis_rotation	pelvis_tx	pelvis_ty	pelvis_tz	hip_flexion_r	hip_adduction_r	hip_rotation_r	knee_angle_r	knee_angle_r_beta	ankle_angle_r	subtalar_angle_r	mtp_angle_r	hip_flexion_l	hip_adduction_l	hip_rotation_l	knee_angle_l	knee_angle_l_beta	ankle_angle_l	subtalar_angle_l	mtp_angle_l	lumbar_extension	lumbar_bending	lumbar_rotation	arm_flex_r	arm_add_r	arm_rot_r	elbow_flex_r	pro_sup_r	arm_flex_l	arm_add_l	arm_rot_l	elbow_flex_l	pro_sup_l
      1.23750000	    -19.25712050	      1.35735332	     -0.01660063	     -1.00571622	      1.27512102	     -0.05431687	     28.44528577	     -1.09220424	      8.52303783	     15.13578119	      0.26416922	      8.48025366	    -15.04676270	     -7.49999987	     29.40887951	      0.19450477	      9.01616203	     16.10562454	      0.28109618	      0.80952707	    -18.64524737	     -7.49999987	     -7.86901195	      0.71225992	     -0.42614216	     -5.91268972	    -24.40045653	     18.90359552	     43.31905055	     70.73238961	     -5.03299977	    -29.96435055	     39.19372288	     35.57302651	     49.15265517
      1.24166670	    -19.50195258	      1.31464563	      0.14403405	     -1.00562572	      1.27801263	     -0.05497362	     28.87411416	     -1.09858688	      8.11119225	     15.34630949	      0.26784363	      8.46070114	    -14.69659889	     -7.49999987	     30.04405409	      0.11861301	      8.72495812	     16.54899633	      0.28883447	      0.58845413	    -18.69512718	     -7.49999987	     -8.37136190	      0.74738738	     -0.52930742	     -6.46588240	    -24.54160203	     19.46357262	     43.03179635	     69.82530983	     -5.83932960	    -30.58330180	     39.32148367	     35.56337074	     49.57934807
      1.24583330	    -19.49060088	      1.20433354	      0.28215503	     -1.00504112	      1.27328583	     -0.05450952	     29.15122968	     -1.01964521	      7.77292521	     15.88619044	      0.27726633	      8.75728102	    -14.43675514	     -7.49999987	     30.48602846	     -0.04174187	      8.41823611	     17.35629763	      0.30292454	      0.72751140	    -18.83528842	     -7.49999987	     -9.00225112	      0.73373619	     -0.50133539	     -7.05136734	    -24.75135171	     19.69494676	     42.60372086	     69.97177093	     -7.01946513	    -30.90496604	     38.22150516	     34.85651107	     49.14519502
      1.25000000	    -19.44544419	      1.10182372	      0.47937110	     -0.99884677	      1.26538992	     -0.05992686	     29.22292797	     -1.05736610	      7.44326384	     16.35840588	      0.28550804	      9.20256331	    -14.40234378	     -7.49999987	     30.80862860	     -0.06552746	      8.05333218	     18.28468617	      0.31912798	      1.07948593	    -18.70174427	     -7.49999987	     -9.29322152	      0.87295991	     -0.47404597	     -8.13913090	    -25.34041204	     19.84574924	     42.68572658	     69.90046694	     -8.34207313	    -31.52445536	     38.45167053	     34.76397398	     49.14820562
      1.25416670	    -20.17952498	      0.92314965	      0.64402016	     -1.00456380	      1.26060132	     -0.05496429	     30.50582255	     -0.91305654	      7.07717091	     17.29990243	      0.30194026	      9.98506276	    -14.21817057	     -7.49999987	     32.31300584	     -0.20657129	      7.79278752	     19.71223518	      0.34404341	      1.71163300	    -18.67890590	     -7.49999987	     -8.67221239	      0.90942813	     -0.78720880	     -9.70847431	    -25.98411577	     20.04229597	     44.80401566	     70.10054874	     -9.96171393	    -32.41624899	     38.48094373	     34.79871888	     48.69282488
      1.25833330	    -20.86504940	      0.92863173	      0.78711414	     -1.00458176	      1.26008611	     -0.05510366	     31.90144948	     -0.94434372	      6.81198553	     18.56590768	      0.32403622	     10.54043959	    -14.14470460	     -7.49999987	     33.70063179	     -0.10882342	      7.59135972	     21.04476391	      0.36730042	      1.98739326	    -18.94505398	     -7.49999987	     -8.38321021	      0.71857639	     -0.91490667	    -11.41977370	    -26.38385120	     19.37467197	     46.50713913	     69.54681841	    -11.53055329	    -33.34492492	     38.12670410	     35.62689490	     48.88839449
      1.26250000	    -21.29160258	      0.82672794	      1.11350459	     -1.00395044	      1.25624077	     -0.05529783	     33.02946380	     -0.92576557	      6.52577809	     19.91670517	      0.34761208	     11.40014845	    -14.13816147	     -7.49999987	     34.94418551	     -0.11215823	      7.27686315	     22.47118914	      0.39219624	      2.48446310	    -19.02425578	     -7.49999987	     -8.25927100	      0.74593267	     -0.75892621	    -13.37340291	    -26.38305322	     19.07279365	     47.61493107	     68.65541740	    -13.17215583	    -34.53061676	     37.69892534	     37.22420493	     49.69890578
      1.26666670	    -21.91802436	      0.72827957	      1.43472614	     -1.00375598	      1.25587088	     -0.05582175	     34.31310404	     -0.97790166	      6.06637933	     21.33447040	      0.37235675	     12.14404554	    -13.80315015	     -7.49999987	     36.41336365	     -0.07164133	      6.86008714	     24.09113047	      0.42046955	      3.20922310	    -18.62667783	     -7.49999987	     -7.84026952	      0.84831806	     -0.72638185	    -15.69026206	    -26.26276716	     18.64352658	     48.32748869	     73.53561370	    -14.84073032	    -35.80602182	     39.03112300	     39.29254931	     44.75326144
